<svg width="907" height="518" viewBox="0 0 907 518" fill="none" xmlns="http://www.w3.org/2000/svg">
<rect width="25" height="129.5" transform="matrix(0.890222 -0.455526 0.604044 0.796951 30.4987 135.795)" fill="url(#paint0_linear_0_1)"/>
<rect width="25" height="126.755" transform="matrix(0.818538 0.574452 -0.720676 0.693272 118.349 120.86)" fill="url(#paint1_linear_0_1)"/>
<rect width="25" height="129.5" transform="matrix(0.890222 -0.455526 0.604044 0.796951 506.499 135.935)" fill="url(#paint2_linear_0_1)"/>
<rect width="25" height="126.755" transform="matrix(0.818538 0.574452 -0.720676 0.693272 594.349 121)" fill="url(#paint3_linear_0_1)"/>
<rect x="210.666" y="125.748" width="22.2191" height="111.563" fill="url(#paint4_linear_0_1)"/>
<rect width="18.5938" height="62.2135" transform="matrix(0.00136039 -0.999999 1 0.000952675 231.761 144.594)" fill="url(#paint5_linear_0_1)"/>
<rect width="18.5938" height="30.0059" transform="matrix(0.00136039 -0.999999 1 0.000952675 230.638 187.048)" fill="url(#paint6_linear_0_1)"/>
<path d="M231.736 235.941L231.761 217.347L293.975 217.406L293.95 236L231.736 235.941Z" fill="url(#paint7_linear_0_1)"/>
<rect width="17.5618" height="44.7672" transform="matrix(0.779897 -0.625907 0.815851 0.578262 791.456 171.999)" fill="url(#paint8_linear_0_1)"/>
<rect width="18.1205" height="66.6774" transform="matrix(0.84388 0.536531 -0.745259 0.666775 838.768 184.819)" fill="url(#paint9_linear_0_1)"/>
<rect width="18.1049" height="66.7404" transform="matrix(0.842237 0.539108 -0.747487 0.664276 828.888 120)" fill="url(#paint10_linear_0_1)"/>
<rect x="364" y="120" width="18" height="119" fill="url(#paint11_linear_0_1)"/>
<rect width="18.3103" height="89.9398" transform="matrix(0.695752 -0.718282 0.684799 0.728732 375.246 177.555)" fill="url(#paint12_linear_0_1)"/>
<circle cx="402.838" cy="147.719" r="29" fill="url(#paint13_linear_0_1)"/>
<rect x="681" y="167.794" width="20" height="69.2057" fill="url(#paint14_linear_0_1)"/>
<ellipse cx="691" cy="137.411" rx="23" ry="19.4113" fill="url(#paint15_linear_0_1)"/>
<defs>
<linearGradient id="paint0_linear_0_1" x1="10.5087" y1="-75.481" x2="52.3262" y2="168.683" gradientUnits="userSpaceOnUse">
<stop offset="0.203371" stop-color="#7006F8" stop-opacity="0.88"/>
<stop offset="0.923169" stop-color="#0EC2FB" stop-opacity="0"/>
</linearGradient>
<linearGradient id="paint1_linear_0_1" x1="10.5086" y1="-73.881" x2="50.6201" y2="165.393" gradientUnits="userSpaceOnUse">
<stop offset="0.203371" stop-color="#7006F8" stop-opacity="0.88"/>
<stop offset="0.923169" stop-color="#0EC2FB" stop-opacity="0"/>
</linearGradient>
<linearGradient id="paint2_linear_0_1" x1="10.5087" y1="-75.481" x2="52.3262" y2="168.683" gradientUnits="userSpaceOnUse">
<stop offset="0.203371" stop-color="#7006F8" stop-opacity="0.88"/>
<stop offset="0.923169" stop-color="#0EC2FB" stop-opacity="0"/>
</linearGradient>
<linearGradient id="paint3_linear_0_1" x1="10.5086" y1="-73.881" x2="50.6201" y2="165.393" gradientUnits="userSpaceOnUse">
<stop offset="0.203371" stop-color="#7006F8" stop-opacity="0.88"/>
<stop offset="0.923169" stop-color="#0EC2FB" stop-opacity="0"/>
</linearGradient>
<linearGradient id="paint4_linear_0_1" x1="221.775" y1="125.748" x2="221.775" y2="237.311" gradientUnits="userSpaceOnUse">
<stop offset="0.0989583" stop-color="#3E12BA"/>
<stop offset="1" stop-color="#F2FAFA" stop-opacity="0"/>
</linearGradient>
<linearGradient id="paint5_linear_0_1" x1="9.29688" y1="0" x2="9.29688" y2="62.2135" gradientUnits="userSpaceOnUse">
<stop offset="0.0989583" stop-color="#3E12BA"/>
<stop offset="1" stop-color="#F2FAFA" stop-opacity="0"/>
</linearGradient>
<linearGradient id="paint6_linear_0_1" x1="9.29688" y1="0" x2="9.29688" y2="30.0059" gradientUnits="userSpaceOnUse">
<stop offset="0.0989583" stop-color="#3E12BA"/>
<stop offset="1" stop-color="#F2FAFA" stop-opacity="0"/>
</linearGradient>
<linearGradient id="paint7_linear_0_1" x1="231.749" y1="226.644" x2="293.962" y2="226.728" gradientUnits="userSpaceOnUse">
<stop offset="0.0989583" stop-color="#3E12BA"/>
<stop offset="1" stop-color="#F2FAFA" stop-opacity="0"/>
</linearGradient>
<linearGradient id="paint8_linear_0_1" x1="8.7809" y1="0" x2="8.7809" y2="44.7672" gradientUnits="userSpaceOnUse">
<stop stop-color="#861ADC"/>
<stop offset="1" stop-color="#DCBD1A" stop-opacity="0"/>
</linearGradient>
<linearGradient id="paint9_linear_0_1" x1="9.06027" y1="0" x2="9.06027" y2="66.6774" gradientUnits="userSpaceOnUse">
<stop stop-color="#861ADC"/>
<stop offset="1" stop-color="#DCBD1A" stop-opacity="0"/>
</linearGradient>
<linearGradient id="paint10_linear_0_1" x1="9.05247" y1="0" x2="9.05247" y2="66.7404" gradientUnits="userSpaceOnUse">
<stop stop-color="#861ADC"/>
<stop offset="1" stop-color="#DCBD1A" stop-opacity="0"/>
</linearGradient>
<linearGradient id="paint11_linear_0_1" x1="373" y1="120" x2="373" y2="239" gradientUnits="userSpaceOnUse">
<stop stop-color="#5B15B4"/>
<stop offset="1" stop-color="#49D1B9" stop-opacity="0"/>
</linearGradient>
<linearGradient id="paint12_linear_0_1" x1="9.15514" y1="0" x2="9.15514" y2="89.9398" gradientUnits="userSpaceOnUse">
<stop stop-color="#5B15B4"/>
<stop offset="1" stop-color="#49D1B9" stop-opacity="0"/>
</linearGradient>
<linearGradient id="paint13_linear_0_1" x1="402.838" y1="118.719" x2="402.838" y2="176.719" gradientUnits="userSpaceOnUse">
<stop stop-color="#5B15B4"/>
<stop offset="1" stop-color="#49D1B9" stop-opacity="0"/>
</linearGradient>
<linearGradient id="paint14_linear_0_1" x1="691" y1="167.794" x2="691" y2="237" gradientUnits="userSpaceOnUse">
<stop stop-color="#801FCD"/>
<stop offset="1" stop-color="#E7C345" stop-opacity="0"/>
</linearGradient>
<linearGradient id="paint15_linear_0_1" x1="691" y1="118" x2="691" y2="156.823" gradientUnits="userSpaceOnUse">
<stop stop-color="#801FCD"/>
<stop offset="1" stop-color="#E7C345" stop-opacity="0"/>
</linearGradient>
</defs>
</svg>
