<svg width="907" height="518" viewBox="0 0 907 518" fill="none" xmlns="http://www.w3.org/2000/svg">
<rect width="25.7518" height="93.4099" transform="matrix(0.902389 -0.430923 0.630437 0.77624 30.9182 150.865)" fill="url(#paint0_linear_0_1)"/>
<rect width="25.7518" height="33.3324" transform="matrix(0.902389 -0.430923 0.630437 0.77624 86.7479 213.126)" fill="url(#paint1_linear_0_1)"/>
<rect width="25.7518" height="33.3324" transform="matrix(0.902389 -0.430923 0.630437 0.77624 16.4741 139.459)" fill="url(#paint2_linear_0_1)"/>
<rect width="24.8836" height="92.4176" transform="matrix(0.836548 0.547894 -0.744127 0.668038 97.0547 140.372)" fill="url(#paint3_linear_0_1)"/>
<rect width="24.8836" height="37.7242" transform="matrix(0.836548 0.547894 -0.744127 0.668038 40.0716 199.869)" fill="url(#paint4_linear_0_1)"/>
<rect width="24.8836" height="34.6361" transform="matrix(0.836548 0.547894 -0.744127 0.668038 109.167 120)" fill="url(#paint5_linear_0_1)"/>
<rect width="25.7518" height="93.4099" transform="matrix(0.902389 -0.430923 0.630437 0.77624 502.918 152.865)" fill="url(#paint6_linear_0_1)"/>
<rect width="25.7518" height="33.3324" transform="matrix(0.902389 -0.430923 0.630437 0.77624 558.748 215.126)" fill="url(#paint7_linear_0_1)"/>
<rect width="25.7518" height="33.3324" transform="matrix(0.902389 -0.430923 0.630437 0.77624 488.474 141.459)" fill="url(#paint8_linear_0_1)"/>
<rect width="24.8836" height="92.4176" transform="matrix(0.836548 0.547894 -0.744127 0.668038 569.055 142.372)" fill="url(#paint9_linear_0_1)"/>
<rect width="24.8836" height="37.7241" transform="matrix(0.836548 0.547894 -0.744127 0.668038 512.072 201.869)" fill="url(#paint10_linear_0_1)"/>
<rect width="24.8836" height="34.6361" transform="matrix(0.836548 0.547894 -0.744127 0.668038 581.167 122)" fill="url(#paint11_linear_0_1)"/>
<rect x="202.666" y="125.748" width="22.2191" height="111.563" fill="url(#paint12_linear_0_1)"/>
<rect x="196" y="155.498" width="22.2191" height="44.625" fill="url(#paint13_linear_0_1)"/>
<rect width="18.5938" height="62.2135" transform="matrix(0.00136039 -0.999999 1 0.000952675 223.761 140.594)" fill="url(#paint14_linear_0_1)"/>
<rect width="18.5938" height="30.0059" transform="matrix(0.00136039 -0.999999 1 0.000952675 222.638 187.048)" fill="url(#paint15_linear_0_1)"/>
<rect width="18.5938" height="30.0059" transform="matrix(0.00136039 -0.999999 1 0.000952675 232.636 188.908)" fill="url(#paint16_linear_0_1)"/>
<path d="M223.736 240.941L223.761 222.347L285.975 222.406L285.949 241L223.736 240.941Z" fill="url(#paint17_linear_0_1)"/>
<rect width="17.5618" height="44.7672" transform="matrix(0.779897 -0.625907 0.815851 0.578262 791.456 171.999)" fill="url(#paint18_linear_0_1)"/>
<rect width="18.1205" height="66.6774" transform="matrix(0.84388 0.536531 -0.745259 0.666775 838.768 184.819)" fill="url(#paint19_linear_0_1)"/>
<rect width="18.1049" height="66.7404" transform="matrix(0.842237 0.539108 -0.747487 0.664276 828.888 120)" fill="url(#paint20_linear_0_1)"/>
<rect x="351" y="122" width="17.6755" height="106.914" fill="url(#paint21_linear_0_1)"/>
<rect x="354.535" y="177.781" width="17.6755" height="63.2188" fill="url(#paint22_linear_0_1)"/>
<rect width="18.3103" height="89.9398" transform="matrix(0.541009 -0.841017 0.814669 0.579926 357.823 187.37)" fill="url(#paint23_linear_0_1)"/>
<rect width="18.3103" height="16.612" transform="matrix(0.541009 -0.841017 0.814669 0.579926 380.165 208.056)" fill="url(#paint24_linear_0_1)"/>
<rect width="18.3103" height="16.612" transform="matrix(0.541009 -0.841017 0.814669 0.579926 380.165 208.056)" fill="url(#paint25_linear_0_1)"/>
<ellipse cx="388.56" cy="155.004" rx="28.7227" ry="29.2852" fill="url(#paint26_linear_0_1)"/>
<rect x="681" y="167.794" width="20" height="69.2057" fill="url(#paint27_linear_0_1)"/>
<rect x="677" y="176.234" width="20" height="11.8156" fill="url(#paint28_linear_0_1)"/>
<rect x="685" y="207.461" width="20" height="11.8156" fill="url(#paint29_linear_0_1)"/>
<ellipse cx="691" cy="137.411" rx="23" ry="19.4113" fill="url(#paint30_linear_0_1)"/>
<defs>
<linearGradient id="paint0_linear_0_1" x1="1.29841" y1="12.5593" x2="43.8118" y2="35.1237" gradientUnits="userSpaceOnUse">
<stop stop-color="#520BAD"/>
<stop offset="0.9999" stop-color="#40BCA6" stop-opacity="0.5"/>
<stop offset="1" stop-color="#D0B62B" stop-opacity="0.2"/>
<stop offset="1" stop-color="#08B06A" stop-opacity="0.2"/>
</linearGradient>
<linearGradient id="paint1_linear_0_1" x1="1.29841" y1="4.48167" x2="18.2611" y2="29.7118" gradientUnits="userSpaceOnUse">
<stop stop-color="#520BAD"/>
<stop offset="0.9999" stop-color="#40BCA6" stop-opacity="0.5"/>
<stop offset="1" stop-color="#D0B62B" stop-opacity="0.2"/>
<stop offset="1" stop-color="#08B06A" stop-opacity="0.2"/>
</linearGradient>
<linearGradient id="paint2_linear_0_1" x1="1.29841" y1="4.48167" x2="18.2611" y2="29.7118" gradientUnits="userSpaceOnUse">
<stop stop-color="#520BAD"/>
<stop offset="0.9999" stop-color="#40BCA6" stop-opacity="0.5"/>
<stop offset="1" stop-color="#D0B62B" stop-opacity="0.2"/>
<stop offset="1" stop-color="#08B06A" stop-opacity="0.2"/>
</linearGradient>
<linearGradient id="paint3_linear_0_1" x1="1.25464" y1="12.4259" x2="42.7556" y2="33.9389" gradientUnits="userSpaceOnUse">
<stop stop-color="#520BAD"/>
<stop offset="0.9999" stop-color="#40BCA6" stop-opacity="0.5"/>
<stop offset="1" stop-color="#D0B62B" stop-opacity="0.2"/>
<stop offset="1" stop-color="#08B06A" stop-opacity="0.2"/>
</linearGradient>
<linearGradient id="paint4_linear_0_1" x1="1.25464" y1="5.07216" x2="21.4072" y2="30.6644" gradientUnits="userSpaceOnUse">
<stop stop-color="#520BAD"/>
<stop offset="0.9999" stop-color="#40BCA6" stop-opacity="0.5"/>
<stop offset="1" stop-color="#D0B62B" stop-opacity="0.2"/>
<stop offset="1" stop-color="#08B06A" stop-opacity="0.2"/>
</linearGradient>
<linearGradient id="paint5_linear_0_1" x1="1.25464" y1="4.65695" x2="19.3291" y2="29.6566" gradientUnits="userSpaceOnUse">
<stop stop-color="#520BAD"/>
<stop offset="0.9999" stop-color="#40BCA6" stop-opacity="0.5"/>
<stop offset="1" stop-color="#D0B62B" stop-opacity="0.2"/>
<stop offset="1" stop-color="#08B06A" stop-opacity="0.2"/>
</linearGradient>
<linearGradient id="paint6_linear_0_1" x1="12.8759" y1="0" x2="12.8759" y2="93.4099" gradientUnits="userSpaceOnUse">
<stop stop-color="#650B8F"/>
<stop offset="1" stop-color="#1FCEC4" stop-opacity="0"/>
</linearGradient>
<linearGradient id="paint7_linear_0_1" x1="12.8759" y1="0" x2="12.8759" y2="33.3324" gradientUnits="userSpaceOnUse">
<stop stop-color="#650B8F"/>
<stop offset="1" stop-color="#1FCEC4" stop-opacity="0"/>
</linearGradient>
<linearGradient id="paint8_linear_0_1" x1="12.8759" y1="0" x2="12.8759" y2="33.3324" gradientUnits="userSpaceOnUse">
<stop stop-color="#650B8F"/>
<stop offset="1" stop-color="#1FCEC4" stop-opacity="0"/>
</linearGradient>
<linearGradient id="paint9_linear_0_1" x1="12.4418" y1="0" x2="12.4418" y2="92.4176" gradientUnits="userSpaceOnUse">
<stop stop-color="#650B8F"/>
<stop offset="1" stop-color="#1FCEC4" stop-opacity="0"/>
</linearGradient>
<linearGradient id="paint10_linear_0_1" x1="12.4418" y1="0" x2="12.4418" y2="37.7241" gradientUnits="userSpaceOnUse">
<stop stop-color="#650B8F"/>
<stop offset="1" stop-color="#1FCEC4" stop-opacity="0"/>
</linearGradient>
<linearGradient id="paint11_linear_0_1" x1="12.4418" y1="0" x2="12.4418" y2="34.6361" gradientUnits="userSpaceOnUse">
<stop stop-color="#650B8F"/>
<stop offset="1" stop-color="#1FCEC4" stop-opacity="0"/>
</linearGradient>
<linearGradient id="paint12_linear_0_1" x1="213.775" y1="125.748" x2="213.775" y2="237.311" gradientUnits="userSpaceOnUse">
<stop offset="0.0989583" stop-color="#3E12BA"/>
<stop offset="1" stop-color="#F2FAFA" stop-opacity="0"/>
</linearGradient>
<linearGradient id="paint13_linear_0_1" x1="207.11" y1="155.498" x2="207.11" y2="200.123" gradientUnits="userSpaceOnUse">
<stop offset="0.0989583" stop-color="#3E12BA"/>
<stop offset="1" stop-color="#F2FAFA" stop-opacity="0"/>
</linearGradient>
<linearGradient id="paint14_linear_0_1" x1="9.29688" y1="0" x2="9.29688" y2="62.2135" gradientUnits="userSpaceOnUse">
<stop offset="0.0989583" stop-color="#3E12BA"/>
<stop offset="1" stop-color="#F2FAFA" stop-opacity="0"/>
</linearGradient>
<linearGradient id="paint15_linear_0_1" x1="9.29688" y1="0" x2="9.29688" y2="30.0059" gradientUnits="userSpaceOnUse">
<stop offset="0.0989583" stop-color="#3E12BA"/>
<stop offset="1" stop-color="#F2FAFA" stop-opacity="0"/>
</linearGradient>
<linearGradient id="paint16_linear_0_1" x1="9.29688" y1="0" x2="9.29688" y2="30.0059" gradientUnits="userSpaceOnUse">
<stop offset="0.0989583" stop-color="#3E12BA"/>
<stop offset="1" stop-color="#F2FAFA" stop-opacity="0"/>
</linearGradient>
<linearGradient id="paint17_linear_0_1" x1="223.749" y1="231.644" x2="285.962" y2="231.728" gradientUnits="userSpaceOnUse">
<stop offset="0.0989583" stop-color="#3E12BA"/>
<stop offset="1" stop-color="#F2FAFA" stop-opacity="0"/>
</linearGradient>
<linearGradient id="paint18_linear_0_1" x1="8.7809" y1="0" x2="8.7809" y2="44.7672" gradientUnits="userSpaceOnUse">
<stop stop-color="#861ADC"/>
<stop offset="1" stop-color="#DCBD1A" stop-opacity="0"/>
</linearGradient>
<linearGradient id="paint19_linear_0_1" x1="9.06027" y1="0" x2="9.06027" y2="66.6774" gradientUnits="userSpaceOnUse">
<stop stop-color="#861ADC"/>
<stop offset="1" stop-color="#DCBD1A" stop-opacity="0"/>
</linearGradient>
<linearGradient id="paint20_linear_0_1" x1="9.05247" y1="0" x2="9.05247" y2="66.7404" gradientUnits="userSpaceOnUse">
<stop stop-color="#861ADC"/>
<stop offset="1" stop-color="#DCBD1A" stop-opacity="0"/>
</linearGradient>
<linearGradient id="paint21_linear_0_1" x1="359.838" y1="122" x2="359.838" y2="228.914" gradientUnits="userSpaceOnUse">
<stop stop-color="#5B15B4"/>
<stop offset="1" stop-color="#49D1B9" stop-opacity="0"/>
</linearGradient>
<linearGradient id="paint22_linear_0_1" x1="363.373" y1="177.781" x2="363.373" y2="241" gradientUnits="userSpaceOnUse">
<stop stop-color="#5B15B4"/>
<stop offset="1" stop-color="#49D1B9" stop-opacity="0"/>
</linearGradient>
<linearGradient id="paint23_linear_0_1" x1="9.15514" y1="0" x2="9.15514" y2="89.9398" gradientUnits="userSpaceOnUse">
<stop stop-color="#5B15B4"/>
<stop offset="1" stop-color="#49D1B9" stop-opacity="0"/>
</linearGradient>
<linearGradient id="paint24_linear_0_1" x1="9.15514" y1="0" x2="9.15514" y2="16.612" gradientUnits="userSpaceOnUse">
<stop stop-color="#5B15B4"/>
<stop offset="1" stop-color="#49D1B9" stop-opacity="0"/>
</linearGradient>
<linearGradient id="paint25_linear_0_1" x1="9.15514" y1="0" x2="9.15514" y2="16.612" gradientUnits="userSpaceOnUse">
<stop stop-color="#5B15B4"/>
<stop offset="1" stop-color="#49D1B9" stop-opacity="0"/>
</linearGradient>
<linearGradient id="paint26_linear_0_1" x1="388.56" y1="125.719" x2="388.56" y2="184.289" gradientUnits="userSpaceOnUse">
<stop stop-color="#5B15B4"/>
<stop offset="1" stop-color="#49D1B9" stop-opacity="0"/>
</linearGradient>
<linearGradient id="paint27_linear_0_1" x1="691" y1="167.794" x2="691" y2="237" gradientUnits="userSpaceOnUse">
<stop stop-color="#801FCD"/>
<stop offset="1" stop-color="#E7C345" stop-opacity="0"/>
</linearGradient>
<linearGradient id="paint28_linear_0_1" x1="687" y1="176.234" x2="687" y2="188.05" gradientUnits="userSpaceOnUse">
<stop stop-color="#801FCD"/>
<stop offset="1" stop-color="#E7C345" stop-opacity="0"/>
</linearGradient>
<linearGradient id="paint29_linear_0_1" x1="695" y1="207.461" x2="695" y2="219.277" gradientUnits="userSpaceOnUse">
<stop stop-color="#801FCD"/>
<stop offset="1" stop-color="#E7C345" stop-opacity="0"/>
</linearGradient>
<linearGradient id="paint30_linear_0_1" x1="691" y1="118" x2="691" y2="156.823" gradientUnits="userSpaceOnUse">
<stop stop-color="#801FCD"/>
<stop offset="1" stop-color="#E7C345" stop-opacity="0"/>
</linearGradient>
</defs>
</svg>
